<?xml version="1.0" encoding="UTF-8" standalone="no"?>
<!-- Created with Inkscape (http://www.inkscape.org/) -->

<svg
   width="32.689651mm"
   height="12.684813mm"
   viewBox="0 0 32.689651 12.684813"
   version="1.1"
   id="svg1"
   xml:space="preserve"
   sodipodi:docname="Logo Light.svg"
   inkscape:version="1.4.2 (f4327f4, 2025-05-13)"
   xmlns:inkscape="http://www.inkscape.org/namespaces/inkscape"
   xmlns:sodipodi="http://sodipodi.sourceforge.net/DTD/sodipodi-0.dtd"
   xmlns="http://www.w3.org/2000/svg"
   xmlns:svg="http://www.w3.org/2000/svg"><sodipodi:namedview
     id="namedview1"
     pagecolor="#ffffff"
     bordercolor="#000000"
     borderopacity="0.25"
     inkscape:showpageshadow="2"
     inkscape:pageopacity="0.0"
     inkscape:pagecheckerboard="0"
     inkscape:deskcolor="#d1d1d1"
     inkscape:document-units="mm"
     inkscape:zoom="3.5815042"
     inkscape:cx="49.420575"
     inkscape:cy="46.209634"
     inkscape:window-width="1920"
     inkscape:window-height="1009"
     inkscape:window-x="1912"
     inkscape:window-y="-8"
     inkscape:window-maximized="1"
     inkscape:current-layer="svg1" /><defs
     id="defs1" /><g
     id="layer1"
     transform="translate(-8.4468832,-7.6177983)"><g
       id="text1"
       style="font-size:7.05556px;font-family:'Park Lane NF';-inkscape-font-specification:'Park Lane NF';letter-spacing:0.370417px;word-spacing:0px;fill:#ffffff;stroke:#ffffff;stroke-width:0.0989055;stroke-linecap:round"
       aria-label="WHO CANSOLVE ?" /><g
       id="g2"><path
         style="fill:#bb4424;fill-opacity:1;stroke:#ffffff;stroke-width:0;stroke-dasharray:none;stroke-opacity:1"
         d="m 6.0803948,7.8189857 c 0,0 0.653191,-0.611849 1.612305,-0.636654 0.959115,-0.0248 2.5796882,0.620117 2.7367842,2.711979 0.157096,2.0918623 -2.4143232,2.6706383 -2.5962242,2.6706383 -0.181901,0 -1.595768,-0.289388 -1.711523,-0.578776 -0.115756,-0.289388 -0.04134,-4.1671873 -0.04134,-4.1671873 z"
         id="path11"
         transform="translate(8.4468832,7.6177983)" /><path
         style="fill:#ffffff;fill-opacity:1;stroke:#ffffff;stroke-width:0;stroke-dasharray:none;stroke-opacity:1"
         d="m 7.4147278,7.2732897 c 0,0 0.01462,0.230938 -0.01754,0.374178 -0.03216,0.14324 -0.190012,0.438489 -0.350791,0.549573 -0.16078,0.111084 -0.435566,0.271863 -0.42972,0.444336 0.0058,0.172472 0.210475,0.248477 0.336175,0.248477 0.125701,0 0.228015,-0.0029 0.225092,0.26017 -0.0029,0.263093 -0.324483,0.257247 -0.105238,0.382947 0.219245,0.1257 0.865285,0.356638 0.868209,0.435566 0.0029,0.07893 -0.780511,0.4940313 -0.777588,0.6109613 0.0029,0.116931 0.254324,0.257247 0.26017,0.400487 0.0058,0.14324 -0.07601,0.675273 0.131547,0.853592 0.207551,0.178319 1.169304,0.292326 1.537635,0.257247 0.36833,-0.03508 1.3546082,-0.91106 1.3368042,-2.3122683 -0.0029,-0.227272 -0.06186,-1.811345 -1.9623822,-2.46434 -0.816566,-0.280561 -1.052374,-0.04093 -1.052374,-0.04093 z"
         id="path12"
         transform="translate(8.4468832,7.6177983)" /><path
         style="fill:#ffffff;fill-opacity:1;stroke:#ffffff;stroke-width:0.09890549;stroke-dasharray:none;stroke-opacity:1;stroke-linejoin:miter"
         d="M 15.751072,2.9745577 16.22261,2.6870347 15.877582,2.0544832 16.33762,2.1809935 c 0,0 0.333527,0.046004 0.49454,-0.092008 0.161012,-0.1380111 0.0452,-0.6229101 0.100098,-0.6595059 0.05489,-0.036596 0.126052,0.038629 0.126052,0.038629 l 0.13825,0.4289832 0.03456,-0.2480376 0.461513,0.4554135 -0.317163,-0.5570683 0.563651,0.1448041 -0.457162,-0.5319178 0.580796,-0.20126641 -0.63255,-0.040253 0.549169,-0.8798211 -0.782063,0.6296758 -0.04313,-0.56067 -0.215642,0.4772884 -0.189765,-0.2875232 -0.03738,0.4255344 -0.531918,-0.3594042 0.514666,0.66417881 c 0,0 0.10704,0.047186 0.130811,0.046152 0.02377,-0.00103 0.02377,0.072347 -0.001,0.099219 -0.0248,0.026872 -0.119889,0.1963706 -0.117822,0.3162599 0.0021,0.1198893 0.02584,0.3400309 -0.0083,0.375171 -0.03411,0.03514 -0.08372,0.1085204 -0.229445,0.083716 -0.145728,-0.024805 -0.68523,-0.2108398 -0.68523,-0.2108398 l -0.24598,-0.5849774 -0.628385,0.0062 -0.36716,1.0454298 z"
         id="path8"
         transform="translate(8.4468832,7.6177983)" /><path
         d="M 10.352508,13.487891 8.4968958,8.1044988 h 0.881945 l 1.4111122,4.0992802 z m 1.848557,0 -0.924279,-2.702279 -0.402166,1.171223 -1.3123346,-3.8523362 h 0.2116668 l 1.0936118,3.2455572 0.296333,-0.874889 -0.811389,-2.3706682 h 0.881945 l 1.404057,4.0992802 z m 0.522111,-1.531056 -1.305278,-3.8523362 h 0.204611 l 1.100667,3.2455572 1.107723,-3.2455572 h 0.211667 z m 2.353027,1.453445 V 8.2949989 H 14.751647 V 8.1044988 h 1.12889 V 13.41028 Z m 2.659946,0 V 9.5014997 H 16.233315 V 13.41028 H 16.035759 V 8.1044988 h 0.197556 V 9.303944 h 1.502834 V 8.1044988 H 17.92665 V 13.41028 Z m 6.452305,-2.652891 q 0,0.578556 -0.218723,1.086557 -0.218722,0.500944 -0.599722,0.874889 -0.373945,0.373945 -0.881945,0.592667 -0.500945,0.211667 -1.079501,0.211667 -0.479778,0 -0.931334,-0.155222 -0.4445,-0.162278 -0.818445,-0.465667 V 8.6124991 q 0.373945,-0.3104446 0.818445,-0.465667 0.4445,-0.1622778 0.931334,-0.1622778 0.578556,0 1.086556,0.2187223 0.508001,0.2116668 0.881945,0.5926671 0.373945,0.3739447 0.592667,0.881945 0.218723,0.5009443 0.218723,1.0795003 z m -0.239889,0 q 0,-0.529167 -0.197556,-0.987778 Q 23.553453,9.303944 23.207731,8.9652771 22.862008,8.6195547 22.396341,8.421999 21.93773,8.2244433 21.408563,8.2244433 q -0.423334,0 -0.818445,0.1411112 -0.395111,0.1340557 -0.726723,0.3880558 v 4.0005027 q 0.331612,0.254 0.726723,0.395111 0.395111,0.141111 0.818445,0.141111 0.529167,0 0.987778,-0.197555 0.465667,-0.197556 0.804334,-0.536223 0.345723,-0.345722 0.543278,-0.804334 0.204612,-0.465667 0.204612,-0.994834 z m -4.416781,2.032002 q -0.423334,-0.402167 -0.663223,-0.924279 -0.232833,-0.522111 -0.232833,-1.107723 0,-0.585611 0.232833,-1.1077226 0.232834,-0.5221114 0.663223,-0.9242783 z m 13.821849,0.04939 q -0.381,0.331611 -0.846667,0.500944 -0.458612,0.162278 -0.959556,0.162278 -0.479779,0 -0.931334,-0.155222 -0.444501,-0.162278 -0.818445,-0.465667 V 8.6266102 q 0.373944,-0.3033891 0.818445,-0.4656669 0.451555,-0.1622779 0.931334,-0.1622779 0.500944,0 0.966611,0.1693334 0.465667,0.1693335 0.839612,0.5080004 l -0.127,0.1552223 Q 32.88091,8.5137213 32.443466,8.3584989 32.013076,8.2032766 31.54741,8.2032766 q -0.423334,0 -0.818445,0.1340557 -0.395112,0.1340556 -0.726723,0.3880558 v 4.0640029 q 0.331611,0.254 0.726723,0.388056 0.402166,0.134055 0.818445,0.134055 0.465666,0 0.896056,-0.162278 0.437444,-0.162278 0.783167,-0.465667 z m -3.683002,-0.07761 q -0.437445,-0.416278 -0.656168,-0.938389 -0.218722,-0.522111 -0.218722,-1.121834 0,-0.557389 0.232834,-1.0653897 0.239889,-0.5080003 0.642056,-0.8890005 z m 6.939145,0.649112 -0.169334,-0.522111 h -1.82739 l -0.169333,0.522111 h -0.211667 l 0.176389,-0.522111 h -0.345723 v -0.190501 h 0.409223 l 1.058334,-3.1326683 1.291167,3.8452803 z m -1.086557,-3.217335 -0.839611,2.504723 h 1.686279 z m 1.50989,3.217335 -1.418167,-4.0922249 0.409222,-1.1923896 1.82739,5.2846145 z M 38.560632,8.2949989 V 8.1044988 h 1.128889 V 13.41028 H 38.885188 V 8.2949989 Z M 39.844744,13.41028 V 8.1044988 q 0.338667,0 0.599722,0.1199445 0.268112,0.1199445 0.444501,0.3739447 V 8.1044988 h 0.197555 V 13.41028 H 40.888967 V 9.240444 q 0,-0.176389 -0.0635,-0.3386669 -0.0635,-0.1622779 -0.183445,-0.289278 Q 40.529133,8.485499 40.373911,8.4078879 40.218688,8.3232211 40.042299,8.3020545 V 13.41028 Z"
         id="path1"
         style="font-size:7.05556px;font-family:'Park Lane NF';-inkscape-font-specification:'Park Lane NF';letter-spacing:0.370417px;word-spacing:0px;fill:#ffffff;stroke:#ffffff;stroke-width:0.0989055;stroke-linecap:round" /><path
         d="m 11.678953,19.942175 q -0.246944,0.141111 -0.522111,0.218722 -0.268111,0.07761 -0.557389,0.07761 -0.437445,0 -0.8184453,-0.162278 Q 9.4000075,19.906897 9.1107295,19.624675 8.8285071,19.335397 8.6591737,18.954396 8.4968958,18.573396 8.4968958,18.135951 h 0.1975557 q 0,0.395112 0.1481667,0.74789 0.1481668,0.345722 0.4021669,0.606778 0.2610558,0.254 0.6067782,0.402167 0.3527777,0.148167 0.7478897,0.148167 0.225778,0 0.451556,-0.04939 0.225777,-0.05645 0.430389,-0.169334 v -3.287891 l -0.881945,-0.324556 q -0.381001,-0.141111 -0.550334,-0.366889 -0.1622779,-0.225778 -0.1622779,-0.451556 0,-0.268111 0.1904999,-0.465666 0.1905,-0.197556 0.515056,-0.197556 0.225778,0 0.416278,0.127 0.1905,0.127 0.275167,0.338667 l -0.183445,0.07056 q -0.0635,-0.155222 -0.204611,-0.239889 -0.141111,-0.09172 -0.303389,-0.09172 -0.239889,0 -0.366889,0.134056 -0.127,0.127 -0.127,0.310444 0,0.169334 0.119944,0.338667 0.127001,0.169334 0.381001,0.268112 l 1.0795,0.416278 z m 1.030112,-1.806224 q 0,0.522112 -0.239889,0.973668 -0.239889,0.451556 -0.663223,0.747889 v -3.386669 q 0.423334,0.296334 0.663223,0.726723 0.239889,0.423333 0.239889,0.938389 z m 6.261813,-0.649111 q 0,0.578556 -0.218722,1.086556 -0.218723,0.500945 -0.599723,0.87489 -0.373945,0.373944 -0.881945,0.592667 -0.500945,0.211666 -1.079501,0.211666 -0.479778,0 -0.931333,-0.155222 -0.444501,-0.162278 -0.818445,-0.465667 v -4.28978 q 0.373944,-0.310445 0.818445,-0.465667 0.4445,-0.162278 0.931333,-0.162278 0.578556,0 1.086557,0.218722 0.508,0.211667 0.881945,0.592667 0.373944,0.373945 0.592667,0.881945 0.218722,0.500945 0.218722,1.079501 z m -0.239889,0 q 0,-0.529167 -0.197556,-0.987779 -0.197555,-0.465667 -0.543278,-0.804333 -0.345722,-0.345723 -0.811389,-0.543279 -0.458612,-0.197555 -0.987779,-0.197555 -0.423333,0 -0.818445,0.141111 -0.395111,0.134056 -0.726722,0.388056 v 4.000502 q 0.331611,0.254001 0.726722,0.395112 0.395112,0.141111 0.818445,0.141111 0.529167,0 0.987779,-0.197556 0.465667,-0.197555 0.804334,-0.536222 0.345722,-0.345723 0.543278,-0.804334 0.204611,-0.465667 0.204611,-0.994834 z m -4.416781,2.032001 q -0.423333,-0.402167 -0.663222,-0.924278 -0.232834,-0.522112 -0.232834,-1.107723 0,-0.585612 0.232834,-1.107723 0.232833,-0.522112 0.663222,-0.924278 z m 5.443373,0.620889 v -5.115281 h -0.324556 v -0.1905 h 1.12889 v 5.305781 z m 0.959556,0 v -5.305781 h 0.1905 v 5.10117 h 1.658057 v 0.204611 z m 3.383143,0.07761 -1.848557,-5.383393 h 0.881945 l 1.404057,4.099281 z m 0.522111,-1.531057 -1.305278,-3.852336 h 0.204611 l 1.100667,3.245558 1.100668,-3.245558 h 0.211667 z m 2.345972,1.453445 v -5.115281 h -0.324556 v -0.1905 h 1.135946 v 5.305781 z m 0.945445,0 v -5.305781 h 1.876779 v 0.1905 h -1.672168 v 1.008945 h 1.305279 v 0.197556 h -1.305279 v 3.704169 h 1.672168 v 0.204611 z m 8.106835,-0.04233 q -0.119944,0.04233 -0.239889,0.04233 -0.141111,0 -0.275167,-0.04939 -0.127,-0.05645 -0.225778,-0.148167 -0.09172,-0.09878 -0.148166,-0.225778 -0.05644,-0.127 -0.05644,-0.275167 0,-0.1905 0.09172,-0.345722 0.09172,-0.162278 0.254001,-0.261056 h -0.225778 v -0.959556 q 0.155222,0.0635 0.310444,0.105833 0.162278,0.03528 0.324556,0.03528 0.04939,0 0.09172,0 0.04939,-0.0071 0.09878,-0.01411 z m 0.451556,-0.656167 q 0,0.176389 -0.08467,0.331611 -0.08467,0.155223 -0.225778,0.254 v -1.171222 q 0.148167,0.09878 0.225778,0.254 0.08467,0.155222 0.08467,0.331611 z m 0.07761,-1.375834 q -0.04233,0.01411 -0.09878,0.03528 -0.05644,0.01411 -0.09172,0.04233 v 0.663223 h -0.197556 v -0.818445 l 0.1905,-0.05645 v -2.913946 q -0.246944,-0.08467 -0.500944,-0.08467 -0.395112,0 -0.733779,0.183445 -0.338666,0.183444 -0.557389,0.515056 l -0.162278,-0.105834 q 0.239889,-0.373945 0.62089,-0.585611 0.388055,-0.211667 0.832556,-0.211667 0.366889,0 0.6985,0.148167 z m 1.044223,-1.594557 q 0,0.486834 -0.246945,0.896056 -0.239889,0.402167 -0.663222,0.635001 v -3.062113 q 0.423333,0.225778 0.663222,0.642056 0.246945,0.409222 0.246945,0.889 z"
         id="path2"
         style="font-size:7.05556px;font-family:'Park Lane NF';-inkscape-font-specification:'Park Lane NF';letter-spacing:0.370417px;word-spacing:0px;fill:#ffffff;stroke:#ffffff;stroke-width:0.0989055;stroke-linecap:round" /><ellipse
         style="fill:#ffffff;fill-opacity:1;stroke:#ffffff;stroke-width:0.10226631;stroke-dasharray:none;stroke-opacity:1;stroke-linejoin:miter"
         id="path5"
         cx="21.411676"
         cy="10.752748"
         rx="2.7582464"
         ry="2.7955546" /><path
         style="fill:#ffffff;fill-opacity:1;stroke:#ffffff;stroke-width:0.105;stroke-dasharray:none;stroke-opacity:1;stroke-linejoin:miter"
         d="m 22.013951,12.690068 c 0.59626,-0.167359 1.18401,-0.684962 1.193473,-0.979051"
         id="path7" /></g></g></svg>
