<?xml version="1.0" encoding="UTF-8" standalone="no"?>
<!-- Created with Inkscape (http://www.inkscape.org/) -->

<svg
   width="1024"
   height="1024"
   viewBox="0 0 270.93333 270.93333"
   version="1.1"
   id="svg1"
   xml:space="preserve"
   sodipodi:docname="drawing.svg"
   inkscape:export-filename="bitmap.png"
   inkscape:export-xdpi="96"
   inkscape:export-ydpi="96"
   inkscape:version="1.4.2 (f4327f4, 2025-05-13)"
   xmlns:inkscape="http://www.inkscape.org/namespaces/inkscape"
   xmlns:sodipodi="http://sodipodi.sourceforge.net/DTD/sodipodi-0.dtd"
   xmlns:xlink="http://www.w3.org/1999/xlink"
   xmlns="http://www.w3.org/2000/svg"
   xmlns:svg="http://www.w3.org/2000/svg"><sodipodi:namedview
     id="namedview1"
     pagecolor="#ffffff"
     bordercolor="#000000"
     borderopacity="0.25"
     inkscape:showpageshadow="2"
     inkscape:pageopacity="0.0"
     inkscape:pagecheckerboard="0"
     inkscape:deskcolor="#d1d1d1"
     inkscape:document-units="mm"
     showgrid="false"
     inkscape:zoom="0.78808594"
     inkscape:cx="543.72243"
     inkscape:cy="646.5031"
     inkscape:window-width="1920"
     inkscape:window-height="1009"
     inkscape:window-x="1912"
     inkscape:window-y="-8"
     inkscape:window-maximized="1"
     inkscape:current-layer="layer1"><inkscape:grid
       id="grid1"
       units="mm"
       originx="0"
       originy="0"
       spacingx="0.99999999"
       spacingy="0.99999999"
       empcolor="#0099e5"
       empopacity="0.30196078"
       color="#0099e5"
       opacity="0.14901961"
       empspacing="5"
       enabled="true"
       visible="false" /></sodipodi:namedview><defs
     id="defs1"><linearGradient
       id="linearGradient136"
       inkscape:collect="always"><stop
         style="stop-color:#ffffff;stop-opacity:0.24701872;"
         offset="0.30779752"
         id="stop137" /><stop
         style="stop-color:#ffffff;stop-opacity:1;"
         offset="0.51162791"
         id="stop139" /><stop
         style="stop-color:#ffffff;stop-opacity:0.23339012;"
         offset="0.74008209"
         id="stop138" /></linearGradient><linearGradient
       id="linearGradient133"
       inkscape:collect="always"><stop
         style="stop-color:#ffffff;stop-opacity:0.09540034;"
         offset="0"
         id="stop134" /><stop
         style="stop-color:#ffffff;stop-opacity:1;"
         offset="0.5"
         id="stop136" /><stop
         style="stop-color:#ffffff;stop-opacity:0.11584327;"
         offset="1"
         id="stop135" /></linearGradient><linearGradient
       id="linearGradient126"
       inkscape:collect="always"><stop
         style="stop-color:#ffffff;stop-opacity:1;"
         offset="0.63337892"
         id="stop126" /><stop
         style="stop-color:#ffffff;stop-opacity:0.53662694;"
         offset="1"
         id="stop127" /></linearGradient><pattern
       inkscape:collect="always"
       xlink:href="#Hexagons"
       preserveAspectRatio="xMidYMid"
       id="pattern126"
       patternTransform="matrix(0.21,0,0,0.21,1,1)"
       x="0"
       y="0" /><pattern
       patternUnits="userSpaceOnUse"
       width="100"
       height="87"
       preserveAspectRatio="xMidYMid"
       patternTransform="translate(1,1) scale(0.5,0.5)"
       style="fill:#ffffff"
       id="Hexagons"
       inkscape:label="Hexagons packing grid"
       inkscape:collect="always"
       inkscape:isstock="true"><path
         id="path27"
         style="stroke:none"
         d="M 23.246093,0 0,13.382812 V 44.689453 L 0.0839844,44.640625 24.033203,58.505859 24.001953,86.332031 22.841796,87 h 4.478516 L 26.068359,86.275391 26.099609,58.449219 50.083984,44.640625 74.033203,58.505859 74.001953,86.332031 72.841796,87 h 4.478516 L 76.068359,86.275391 76.099609,58.449219 100,44.689453 V 13.365234 L 76.919921,0 H 73.246093 L 50.015625,13.373047 26.919921,0 Z M 25.083984,1.25 49.033203,15.115234 49.001953,42.941406 25.017578,56.75 1.0019531,42.845703 l 0.033203,-27.75 z m 50,0 24.017576,13.904297 -0.0352,27.75 L 75.017578,56.75 51.068359,42.884766 51.099609,15.058594 Z" /></pattern><clipPath
       clipPathUnits="userSpaceOnUse"
       id="clipPath124"><rect
         style="fill:none;stroke:#000000;stroke-width:0.999999;stroke-linecap:butt;stroke-linejoin:bevel;paint-order:stroke markers fill;stop-color:#000000"
         id="rect124"
         width="44.999748"
         height="77.937294"
         x="251.53429"
         y="222.73541" /></clipPath><pattern
       inkscape:collect="always"
       xlink:href="#shading29"
       preserveAspectRatio="xMidYMid"
       id="pattern116"
       patternTransform="matrix(0.33600386,0,0,0.33600386,267.32558,3003.2523)"
       x="0"
       y="0" /><pattern
       patternUnits="userSpaceOnUse"
       width="304.5338"
       height="9.3364"
       patternTransform="translate(213.95321,1842.4623)"
       preserveAspectRatio="xMidYMid"
       id="shading29"
       style="fill:#ba4423"
       inkscape:label="Diamond halftone shading 2"
       inkscape:collect="always"
       inkscape:isstock="true"><path
         id="use34"
         style="stroke-width:0.110789;stroke-linecap:square;paint-order:markers fill stroke;stop-color:#000000"
         d="m 304.2739,0 h 0.2019 l 0.058,4.6682 -0.058,4.6682 h -0.2019 l 0.058,-4.6682 z m -13.2293,0 h 1.3041 l -0.2243,4.6682 0.2243,4.6682 h -1.3041 l 0.3189,-4.6682 z m -13.2293,0 h 2.4063 l -0.5063,4.6682 0.5063,4.6682 h -2.4063 l 0.5801,-4.6682 z M 264.586,0 h 3.5085 l -0.7883,4.6682 0.7883,4.6682 h -3.5085 l 0.8414,-4.6682 z m -13.2293,0 h 4.6107 l -1.0704,4.6682 1.0704,4.6682 h -4.6107 l 1.1026,-4.6682 z m -13.2293,0 h 5.713 l -1.3525,4.6682 1.3525,4.6682 h -5.713 l 1.3639,-4.6682 z m -13.2293,0 h 6.8152 l -1.6345,4.6682 1.6345,4.6682 h -6.8152 l 1.6251,-4.6682 z m -13.2293,0 h 7.9174 l -1.9165,4.6682 1.9165,4.6682 h -7.9174 l 1.8863,-4.6682 z m -13.2293,0 h 9.0196 l -2.1985,4.6682 2.1985,4.6682 h -9.0196 l 2.1476,-4.6682 z m -13.2293,0 h 10.1218 l -2.4805,4.6682 2.4805,4.6682 h -10.1218 l 2.4088,-4.6682 z m -13.2293,0 h 11.224 l -2.7625,4.6682 2.7625,4.6682 h -11.224 l 2.67,-4.6682 z m -13.2293,0 h 12.3263 l -3.0446,4.6682 3.0446,4.6682 h -12.3263 l 2.9313,-4.6682 z m -13.2293,0 h 13.4285 l -3.3266,4.6682 3.3266,4.6682 h -13.4285 l 3.1925,-4.6682 z M 132.293,0 h 14.5307 l -3.6086,4.6682 3.6086,4.6682 H 132.293 l 3.4538,-4.6682 z m -13.2293,0 h 15.6329 l -3.8906,4.6682 3.8906,4.6682 h -15.6329 l 3.715,-4.6682 z m -13.2293,0 h 16.7351 l -4.1726,4.6682 4.1726,4.6682 h -16.7351 l 3.9762,-4.6682 z M 92.6051,0 h 17.8374 l -4.4547,4.6682 4.4547,4.6682 H 92.6051 L 96.8426,4.6682 Z M 79.3758,0 h 18.9396 l -4.7368,4.6682 4.7368,4.6682 H 79.3758 L 83.8745,4.6682 Z M 66.1465,0 h 20.0418 l -5.0188,4.6682 5.0188,4.6682 H 66.1465 l 4.76,-4.6682 z M 52.9172,0 h 21.144 l -5.3008,4.6682 5.3008,4.6682 H 52.9172 L 57.9384,4.6682 Z M 39.6879,0 h 22.2462 l -5.5828,4.6682 5.5828,4.6682 H 39.6879 L 44.9703,4.6682 Z M 26.4586,0 h 23.3485 l -5.8649,4.6682 5.8649,4.6682 H 26.4586 L 32.0023,4.6682 Z M 13.2293,0 H 37.68 L 31.5331,4.6682 37.68,9.3364 H 13.2293 L 19.0342,4.6682 Z M 0,0 H 25.5529 L 19.124,4.6682 25.5529,9.3364 H 0 L 6.0661,4.6682 Z"
         sodipodi:nodetypes="cccccccccccccc" /></pattern><clipPath
       clipPathUnits="userSpaceOnUse"
       id="clipPath15"><rect
         style="fill:none;stroke:#000000;stroke-linecap:butt;stroke-linejoin:bevel;paint-order:stroke markers fill;stop-color:#000000"
         id="rect15-7"
         width="45.034248"
         height="38.955639"
         x="262.48285"
         y="121.00073" /></clipPath><clipPath
       clipPathUnits="userSpaceOnUse"
       id="clipPath27"><rect
         style="fill:none;stroke:#000000;stroke-width:0.999999;stroke-linecap:butt;stroke-linejoin:bevel;paint-order:stroke markers fill;stop-color:#000000"
         id="rect28-6"
         width="46.160622"
         height="39.922417"
         x="86.574379"
         y="420.06253" /></clipPath><clipPath
       clipPathUnits="userSpaceOnUse"
       id="clipPath25"><rect
         style="fill:#ff0000;stroke:none;stroke-width:3;stroke-linecap:square;stroke-linejoin:miter;paint-order:stroke markers fill;stop-color:#000000"
         id="rect25-8"
         width="78"
         height="45.033199"
         x="763.61322"
         y="452.82422" /></clipPath><clipPath
       clipPathUnits="userSpaceOnUse"
       id="clipPath93"><rect
         style="fill:#000000;stroke:none;stroke-width:0.999995;stroke-linecap:butt;stroke-linejoin:bevel;paint-order:stroke markers fill;stop-color:#000000"
         id="rect93"
         width="46.19186"
         height="80.006783"
         x="74.999985"
         y="399.99661" /></clipPath><clipPath
       clipPathUnits="userSpaceOnUse"
       id="clipPath52"><path
         id="path52"
         style="stroke-width:0.1;stroke-linecap:square;paint-order:markers fill stroke;stop-color:#000000"
         d="m -880.82767,-187.29769 h 1640.84 v 73.28155 h -1640.84 z" /></clipPath><clipPath
       clipPathUnits="userSpaceOnUse"
       id="clipPath24"><rect
         style="fill:none;stroke:#000000;stroke-width:0.999999;stroke-linecap:butt;stroke-linejoin:bevel;paint-order:stroke markers fill;stop-color:#000000"
         id="rect24"
         width="44.999748"
         height="77.937294"
         x="251.53429"
         y="222.73541" /></clipPath><clipPath
       clipPathUnits="userSpaceOnUse"
       id="clipPath33"><rect
         style="fill:#000000;stroke:none;stroke-width:0.999995;stroke-linecap:butt;stroke-linejoin:bevel;paint-order:stroke markers fill;stop-color:#000000"
         id="rect33"
         width="46.19186"
         height="80.006783"
         x="74.999985"
         y="399.99661" /></clipPath><linearGradient
       id="linearGradient3"
       inkscape:collect="always"><stop
         style="stop-color:#000000;stop-opacity:1;"
         offset="0.10123124"
         id="stop3" /><stop
         style="stop-color:#000000;stop-opacity:0;"
         offset="1"
         id="stop4" /></linearGradient><linearGradient
       id="swatch1"
       inkscape:swatch="solid"><stop
         style="stop-color:#000000;stop-opacity:1;"
         offset="0"
         id="stop1" /></linearGradient><linearGradient
       inkscape:collect="always"
       xlink:href="#linearGradient3"
       id="linearGradient4"
       x1="206.23926"
       y1="64.694115"
       x2="64.694145"
       y2="206.23923"
       gradientUnits="userSpaceOnUse"
       gradientTransform="translate(3.0454102e-5)" /><filter
       inkscape:collect="always"
       style="color-interpolation-filters:sRGB"
       id="filter117"
       x="-0.036870789"
       y="-0.036870789"
       width="1.0737416"
       height="1.0737416"><feGaussianBlur
         inkscape:collect="always"
         stdDeviation="2.0677161"
         id="feGaussianBlur117" /></filter><radialGradient
       inkscape:collect="always"
       xlink:href="#linearGradient126"
       id="radialGradient127"
       cx="135.46669"
       cy="135.46664"
       fx="135.46669"
       fy="135.46664"
       r="130.01669"
       gradientTransform="matrix(1,0,0,0.28596427,0,96.728021)"
       gradientUnits="userSpaceOnUse" /><linearGradient
       inkscape:collect="always"
       xlink:href="#linearGradient133"
       id="linearGradient135"
       x1="139.28903"
       y1="94.688913"
       x2="182.08857"
       y2="94.688913"
       gradientUnits="userSpaceOnUse" /><linearGradient
       inkscape:collect="always"
       xlink:href="#linearGradient136"
       id="linearGradient138"
       x1="135.46669"
       y1="265.48334"
       x2="135.46669"
       y2="5.4499421"
       gradientUnits="userSpaceOnUse" /></defs><g
     inkscape:label="Layer 1"
     inkscape:groupmode="layer"
     id="layer1"><circle
       style="display:none;fill:#ffffff;fill-opacity:1;stroke:none;stroke-width:1.011;stroke-dasharray:none;stroke-opacity:1"
       id="path1-7-3"
       cx="135.46666"
       cy="135.46666"
       r="99.58197" /><circle
       style="display:inline;fill:url(#pattern126);fill-opacity:1;stroke:none;stroke-width:0.683219;stroke-dasharray:none;stroke-opacity:1;filter:url(#filter117)"
       id="path1"
       cx="135.46666"
       cy="135.46666"
       r="67.296074"
       transform="matrix(1.6800193,0,0,1.6800193,-92.119941,-92.11994)" /><circle
       style="display:none;fill:url(#linearGradient4);stroke:none;stroke-width:1.011;stroke-dasharray:none;stroke-opacity:1"
       id="path1-7"
       cx="135.46666"
       cy="135.46666"
       r="99.58197" /><path
       style="display:inline;fill:url(#linearGradient135);fill-opacity:1;stroke:#000000;stroke-width:0.253;stroke-linecap:round;stroke-linejoin:round;stroke-dasharray:none;stroke-dashoffset:0;stroke-opacity:1;paint-order:normal"
       d="m 157.46207,118.80246 4.7918,-6.02839 -5.87381,-7.34228 c 0,0 6.70465,0.8888 10.10528,-1.27523 3.40064,-2.16403 2.95625,-4.907741 2.06743,-6.878554 -0.8888,-1.970814 -0.83084,-3.883684 -0.83084,-3.883684 l 1.70032,0.231859 3.7291,5.21688 -1.17861,-3.864347 8.98462,4.811122 -7.26499,-6.646694 8.26973,0.193219 -8.50159,-5.448739 7.84465,-5.448756 -9.54496,2.627768 4.32808,-14.491327 -8.07651,12.211356 -2.58913,-7.960561 -1.04337,7.999202 -3.98029,-3.980285 1.93218,6.414834 -9.27445,-3.130128 9.77682,6.608054 2.39589,0.695578 c 0,0 -1.35251,3.477926 -0.61829,6.337554 0.73423,2.859628 1.66167,4.328069 0.85017,5.255519 -0.81152,0.92746 -4.79182,1.62303 -8.07651,1.27524 -3.2847,-0.34778 -3.86436,-0.38644 -3.86436,-0.38644 l -5.4101,-6.723976 -8.69481,2.202673 z"
       id="path8" /><circle
       style="display:inline;fill:url(#pattern116);fill-opacity:1;stroke:none;stroke-width:1.25665;stroke-linecap:round;stroke-linejoin:round;stroke-dasharray:none;stroke-dashoffset:0;stroke-opacity:1;paint-order:normal"
       id="path6"
       cx="114.67994"
       cy="135.46666"
       r="29.638195" /><text
       xml:space="preserve"
       style="font-size:94.8277px;font-family:'Times New Roman';-inkscape-font-specification:'Times New Roman, ';text-align:start;writing-mode:lr-tb;direction:ltr;text-anchor:start;display:inline;fill:url(#radialGradient127);fill-opacity:1;stroke:url(#linearGradient138);stroke-width:0.5;stroke-linecap:round;stroke-linejoin:round;stroke-dasharray:none;stroke-dashoffset:0;stroke-opacity:1;paint-order:normal"
       x="3.3242879"
       y="171.16919"
       id="text4"><tspan
         sodipodi:role="line"
         id="tspan4"
         style="font-style:normal;font-variant:normal;font-weight:normal;font-stretch:normal;font-size:94.8277px;font-family:'Park Lane NF';-inkscape-font-specification:'Park Lane NF';fill:url(#radialGradient127);fill-opacity:1;stroke:url(#linearGradient138);stroke-width:0.5;stroke-linecap:round;stroke-linejoin:round;stroke-dasharray:none;stroke-dashoffset:0;stroke-opacity:1;paint-order:normal"
         x="3.3242879"
         y="171.16919">WC<tspan
   style="font-size:33.1898px;fill:url(#radialGradient127);fill-opacity:1;stroke:url(#linearGradient138);stroke-width:0.5;stroke-linejoin:round;stroke-dasharray:none;stroke-opacity:1;stroke-dashoffset:0"
   id="tspan5"> </tspan>S?</tspan></text></g></svg>
