<?xml version="1.0" encoding="UTF-8" standalone="no"?>
<!-- Created with Inkscape (http://www.inkscape.org/) -->

<svg
   width="32.689651mm"
   height="12.684813mm"
   viewBox="0 0 32.689651 12.684813"
   version="1.1"
   id="svg1"
   xml:space="preserve"
   sodipodi:docname="Logo Light.svg"
   inkscape:version="1.4.2 (f4327f4, 2025-05-13)"
   xmlns:inkscape="http://www.inkscape.org/namespaces/inkscape"
   xmlns:sodipodi="http://sodipodi.sourceforge.net/DTD/sodipodi-0.dtd"
   xmlns="http://www.w3.org/2000/svg"
   xmlns:svg="http://www.w3.org/2000/svg"><sodipodi:namedview
     id="namedview1"
     pagecolor="#ffffff"
     bordercolor="#000000"
     borderopacity="0.25"
     inkscape:showpageshadow="2"
     inkscape:pageopacity="0.0"
     inkscape:pagecheckerboard="0"
     inkscape:deskcolor="#d1d1d1"
     inkscape:document-units="mm"
     inkscape:zoom="7.1630085"
     inkscape:cx="27.223198"
     inkscape:cy="26.455365"
     inkscape:window-width="1920"
     inkscape:window-height="1009"
     inkscape:window-x="1912"
     inkscape:window-y="-8"
     inkscape:window-maximized="1"
     inkscape:current-layer="svg1" /><defs
     id="defs1" /><path
     style="fill:#bb4424;fill-opacity:1;stroke:#ffffff;stroke-width:0;stroke-dasharray:none;stroke-opacity:1"
     d="m 6.0803948,7.8189857 c 0,0 0.653191,-0.611849 1.612305,-0.636654 0.959115,-0.0248 2.5796882,0.620117 2.7367842,2.711979 0.157096,2.0918623 -2.4143232,2.6706383 -2.5962242,2.6706383 -0.181901,0 -1.595768,-0.289388 -1.711523,-0.578776 -0.115756,-0.289388 -0.04134,-4.1671873 -0.04134,-4.1671873 z"
     id="path11" /><path
     style="fill:#ffffff;fill-opacity:1;stroke:#ffffff;stroke-width:0;stroke-dasharray:none;stroke-opacity:1"
     d="m 7.4147278,7.2732897 c 0,0 0.01462,0.230938 -0.01754,0.374178 -0.03216,0.14324 -0.190012,0.438489 -0.350791,0.549573 -0.16078,0.111084 -0.435566,0.271863 -0.42972,0.444336 0.0058,0.172472 0.210475,0.248477 0.336175,0.248477 0.125701,0 0.228015,-0.0029 0.225092,0.26017 -0.0029,0.263093 -0.324483,0.257247 -0.105238,0.382947 0.219245,0.1257 0.865285,0.356638 0.868209,0.435566 0.0029,0.07893 -0.780511,0.4940313 -0.777588,0.6109613 0.0029,0.116931 0.254324,0.257247 0.26017,0.400487 0.0058,0.14324 -0.07601,0.675273 0.131547,0.853592 0.207551,0.178319 1.169304,0.292326 1.537635,0.257247 0.36833,-0.03508 1.3546082,-0.91106 1.3368042,-2.3122683 -0.0029,-0.227272 -0.06186,-1.811345 -1.9623822,-2.46434 -0.816566,-0.280561 -1.052374,-0.04093 -1.052374,-0.04093 z"
     id="path12" /><path
     style="fill:#ffffff;fill-opacity:1;stroke:#ffffff;stroke-width:0.09890549;stroke-dasharray:none;stroke-opacity:1;stroke-linejoin:miter"
     d="M 15.751072,2.9745577 16.22261,2.6870347 15.877582,2.0544832 16.33762,2.1809935 c 0,0 0.333527,0.046004 0.49454,-0.092008 0.161012,-0.1380111 0.0452,-0.6229101 0.100098,-0.6595059 0.05489,-0.036596 0.126052,0.038629 0.126052,0.038629 l 0.13825,0.4289832 0.03456,-0.2480376 0.461513,0.4554135 -0.317163,-0.5570683 0.563651,0.1448041 -0.457162,-0.5319178 0.580796,-0.20126641 -0.63255,-0.040253 0.549169,-0.8798211 -0.782063,0.6296758 -0.04313,-0.56067 -0.215642,0.4772884 -0.189765,-0.2875232 -0.03738,0.4255344 -0.531918,-0.3594042 0.514666,0.66417881 c 0,0 0.10704,0.047186 0.130811,0.046152 0.02377,-0.00103 0.02377,0.072347 -0.001,0.099219 -0.0248,0.026872 -0.119889,0.1963706 -0.117822,0.3162599 0.0021,0.1198893 0.02584,0.3400309 -0.0083,0.375171 -0.03411,0.03514 -0.08372,0.1085204 -0.229445,0.083716 -0.145728,-0.024805 -0.68523,-0.2108398 -0.68523,-0.2108398 l -0.24598,-0.5849774 -0.628385,0.0062 -0.36716,1.0454298 z"
     id="path8" /><g
     id="layer1"
     transform="translate(-8.4468832,-7.6177983)"><text
       xml:space="preserve"
       style="font-style:normal;font-variant:normal;font-weight:normal;font-stretch:normal;font-size:7.05556px;font-family:'Park Lane NF';-inkscape-font-specification:'Park Lane NF';text-align:start;letter-spacing:0.370417px;word-spacing:0px;writing-mode:lr-tb;direction:ltr;text-anchor:start;fill:#ffffff;fill-opacity:1;stroke:#ffffff;stroke-width:0.09890549;stroke-linecap:round;stroke-linejoin:miter;stroke-dasharray:none;stroke-opacity:1"
       x="8.3275623"
       y="11.32028"
       id="text1"><tspan
         style="font-style:normal;font-variant:normal;font-weight:normal;font-stretch:normal;font-size:7.05556px;font-family:'Park Lane NF';-inkscape-font-specification:'Park Lane NF';letter-spacing:0.370417px;word-spacing:0px;fill:#ffffff;fill-opacity:1;stroke:#ffffff;stroke-width:0.09890549;stroke-linecap:round;stroke-linejoin:miter;stroke-dasharray:none;stroke-opacity:1"
         x="8.3275623"
         y="11.32028"
         id="tspan3"
         dy="2.0899999">WHO CAN</tspan><tspan
         style="font-style:normal;font-variant:normal;font-weight:normal;font-stretch:normal;font-size:7.05556px;font-family:'Park Lane NF';-inkscape-font-specification:'Park Lane NF';letter-spacing:0.370417px;word-spacing:0px;fill:#ffffff;fill-opacity:1;stroke:#ffffff;stroke-width:0.09890549;stroke-linecap:round;stroke-linejoin:miter;stroke-dasharray:none;stroke-opacity:1"
         x="8.3275623"
         y="20.13973"
         id="tspan4">SOLVE ?</tspan></text><ellipse
       style="fill:#ffffff;fill-opacity:1;stroke:#ffffff;stroke-width:0.10226631;stroke-dasharray:none;stroke-opacity:1;stroke-linejoin:miter"
       id="path5"
       cx="21.411676"
       cy="10.752748"
       rx="2.7582464"
       ry="2.7955546" /><path
       style="fill:#ffffff;fill-opacity:1;stroke:#ffffff;stroke-width:0.105;stroke-dasharray:none;stroke-opacity:1;stroke-linejoin:miter"
       d="m 22.013951,12.690068 c 0.59626,-0.167359 1.18401,-0.684962 1.193473,-0.979051"
       id="path7" /></g></svg>
